<svg xmlns="http://www.w3.org/2000/svg" width="100" height="40" viewBox="0 0 100 40">
  <rect width="100" height="40" rx="6" fill="#FFCB05"/>
  <!-- e -->
  <path d="M16 17 h6 v2 h-6 v3 h6 v2 h-8 v-12 h8 v2 h-6 z" fill="#1a1a2e"/>
  <!-- x -->
  <path d="M26 14 l3 6 l-3 6 h3 l1.5-3 l1.5 3 h3 l-3-6 l3-6 h-3 l-1.5 3 l-1.5-3 z" fill="#1a1a2e"/>
  <!-- n -->
  <path d="M40 14 v12 h-2 v-8 l-4 8 h-2 v-12 h2 v8 l4-8 z" fill="#1a1a2e"/>
  <!-- e -->
  <path d="M44 17 h6 v2 h-6 v3 h6 v2 h-8 v-12 h8 v2 h-6 z" fill="#1a1a2e"/>
  <!-- s -->
  <path d="M54 14 h6 v5 h-4 v3 h4 v4 h-6 v-2 h4 v-3 h-4 v-5 h4 v-2 z" fill="#1a1a2e"/>
  <!-- s -->
  <path d="M64 14 h6 v5 h-4 v3 h4 v4 h-6 v-2 h4 v-3 h-4 v-5 h4 v-2 z" fill="#1a1a2e"/>
</svg>
