<?xml version="1.0" encoding="utf-8"?>
<!-- Generator: Adobe Illustrator 28.2.0, SVG Export Plug-In . SVG Version: 6.00 Build 0)  -->
<svg version="1.0" id="katman_1" xmlns="http://www.w3.org/2000/svg" xmlns:xlink="http://www.w3.org/1999/xlink" x="0px" y="0px"
	 viewBox="0 0 168 104" style="enable-background:new 0 0 168 104;" xml:space="preserve">
<style type="text/css">
	.st0{fill:#141D22;}
</style>
<path class="st0" d="M16.35,54.08c0.23,0.84,0.59,1.61,1.08,2.32c0.48,0.7,1.06,1.32,1.72,1.84c0.66,0.52,1.4,0.92,2.22,1.21
	c0.82,0.29,1.69,0.44,2.57,0.43c1.35,0,2.53-0.28,3.53-0.85c1.01-0.56,1.81-1.2,2.41-1.93h4.87c-0.46,0.99-1.07,1.91-1.79,2.73
	c-0.73,0.84-1.57,1.57-2.5,2.19c-0.95,0.63-1.98,1.12-3.06,1.45C26.31,63.83,25.15,64,23.94,64c-1.64,0-3.19-0.32-4.64-0.95
	c-1.42-0.61-2.7-1.49-3.79-2.58c-1.09-1.1-1.96-2.39-2.56-3.81C12.31,55.19,11.99,53.6,12,52c0-1.65,0.31-3.2,0.95-4.66
	c0.61-1.42,1.48-2.72,2.56-3.81c1.09-1.09,2.38-1.97,3.79-2.58c1.46-0.64,3.04-0.96,4.64-0.95c1.64,0,3.18,0.32,4.64,0.95
	c1.42,0.61,2.7,1.49,3.79,2.58c1.09,1.1,1.96,2.39,2.57,3.81c0.63,1.46,0.95,3.01,0.95,4.66c0,0.38-0.01,0.74-0.04,1.08
	c-0.03,0.35-0.07,0.68-0.13,1L16.35,54.08L16.35,54.08L16.35,54.08z M31.53,49.96c-0.23-0.83-0.58-1.62-1.06-2.34
	c-0.47-0.71-1.05-1.34-1.72-1.86c-0.67-0.52-1.42-0.93-2.22-1.21c-0.83-0.29-1.71-0.44-2.59-0.43c-0.88,0-1.74,0.15-2.57,0.45
	c-0.81,0.3-1.56,0.71-2.24,1.23c-0.67,0.52-1.25,1.14-1.73,1.84c-0.48,0.71-0.83,1.49-1.06,2.32L31.53,49.96L31.53,49.96z
	 M36.62,42.86L39.55,40l8.71,9.05L56.97,40l2.93,2.86L51.1,52l8.8,9.14L56.97,64l-8.71-9.05L39.55,64l-2.93-2.86L45.41,52
	C45.41,52,36.62,42.86,36.62,42.86z M62.44,51.39c0-1.56,0.29-3.03,0.88-4.42c0.57-1.36,1.4-2.59,2.44-3.64
	c1.04-1.04,2.27-1.87,3.62-2.45c1.39-0.59,2.89-0.9,4.4-0.89c1.55,0,3.02,0.3,4.4,0.89c1.35,0.57,2.58,1.41,3.62,2.45
	c1.04,1.05,1.86,2.28,2.43,3.64c0.59,1.4,0.89,2.9,0.88,4.42v11.91h-4.48V51.17c0.01-0.92-0.18-1.84-0.54-2.68
	c-0.34-0.82-0.84-1.56-1.46-2.19c-0.63-0.63-1.36-1.13-2.18-1.47c-0.84-0.36-1.75-0.55-2.67-0.54c-0.95,0-1.84,0.18-2.67,0.54
	c-0.83,0.36-1.56,0.85-2.18,1.47c-0.62,0.63-1.12,1.37-1.47,2.19c-0.36,0.85-0.55,1.76-0.54,2.69v12.13h-4.48
	C62.44,63.31,62.44,51.39,62.44,51.39z M92.58,54.08c0.23,0.84,0.59,1.61,1.08,2.32c0.48,0.7,1.06,1.32,1.72,1.84
	c0.66,0.52,1.4,0.92,2.22,1.21c0.82,0.29,1.69,0.44,2.57,0.43c1.35,0,2.53-0.28,3.54-0.85c1-0.56,1.81-1.2,2.41-1.93h4.87
	c-0.46,0.99-1.07,1.91-1.79,2.73c-0.73,0.84-1.57,1.57-2.5,2.19c-0.95,0.63-1.98,1.12-3.06,1.45c-1.11,0.35-2.26,0.52-3.47,0.52
	c-1.64,0-3.18-0.32-4.64-0.95c-1.42-0.61-2.7-1.49-3.79-2.58c-1.09-1.1-1.96-2.39-2.57-3.81c-0.63-1.47-0.96-3.06-0.95-4.66
	c0-1.65,0.32-3.2,0.95-4.66c0.61-1.42,1.48-2.71,2.57-3.81c1.09-1.09,2.38-1.97,3.79-2.58c1.46-0.64,3.04-0.96,4.63-0.95
	c1.64,0,3.18,0.32,4.64,0.95c1.42,0.61,2.7,1.49,3.79,2.58c1.09,1.1,1.96,2.39,2.57,3.81c0.63,1.46,0.95,3.01,0.95,4.66
	c0,0.38-0.01,0.74-0.04,1.08c-0.03,0.35-0.07,0.68-0.13,1L92.58,54.08L92.58,54.08L92.58,54.08z M107.76,49.96
	c-0.23-0.83-0.58-1.62-1.06-2.34c-0.47-0.71-1.05-1.34-1.72-1.86c-0.67-0.52-1.42-0.93-2.22-1.21c-0.83-0.29-1.71-0.44-2.59-0.43
	c-0.88,0-1.74,0.15-2.57,0.45c-0.81,0.3-1.56,0.71-2.24,1.23c-0.67,0.52-1.25,1.14-1.72,1.84c-0.48,0.71-0.83,1.49-1.06,2.32
	L107.76,49.96C107.76,49.97,107.76,49.96,107.76,49.96z M124.7,64c-2.62,0-4.88-0.61-6.79-1.84c-1.91-1.23-3.25-2.91-4.03-5.05h4.79
	c0.6,0.92,1.44,1.64,2.52,2.15c1.09,0.51,2.27,0.77,3.47,0.76c1.49,0,2.65-0.27,3.47-0.8c0.82-0.53,1.23-1.26,1.23-2.19
	c0-0.75-0.3-1.33-0.88-1.73c-0.59-0.4-1.57-0.74-2.95-1l-3.36-0.65c-2.64-0.49-4.57-1.27-5.78-2.34c-1.21-1.07-1.81-2.51-1.81-4.33
	c0-1.01,0.22-1.94,0.67-2.79c0.45-0.86,1.08-1.61,1.85-2.21c0.79-0.62,1.73-1.1,2.82-1.45c1.09-0.35,2.3-0.52,3.62-0.52
	c2.44,0,4.56,0.58,6.34,1.76c1.78,1.17,3.03,2.79,3.75,4.87h-4.79c-0.49-0.84-1.2-1.49-2.13-1.95c-0.93-0.46-1.98-0.69-3.13-0.69
	c-1.38,0-2.45,0.25-3.21,0.76c-0.76,0.51-1.14,1.22-1.14,2.14c0,0.66,0.29,1.2,0.88,1.6c0.59,0.4,1.56,0.74,2.91,0.99l3.36,0.65
	c2.61,0.49,4.54,1.29,5.78,2.4c1.24,1.11,1.85,2.58,1.85,4.4c0,1.04-0.23,1.99-0.69,2.84c-0.48,0.87-1.13,1.63-1.92,2.23
	c-0.82,0.64-1.8,1.13-2.95,1.47C127.3,63.83,126.05,64,124.7,64L124.7,64z M146.69,64c-2.62,0-4.88-0.61-6.79-1.84
	c-1.91-1.23-3.25-2.91-4.03-5.05h4.78c0.6,0.92,1.45,1.64,2.52,2.15c1.09,0.51,2.27,0.77,3.47,0.76c1.49,0,2.65-0.27,3.47-0.8
	c0.82-0.53,1.23-1.26,1.23-2.19c0-0.75-0.3-1.33-0.88-1.73c-0.59-0.4-1.57-0.74-2.95-1l-3.36-0.65c-2.65-0.49-4.57-1.27-5.78-2.34
	c-1.21-1.07-1.81-2.51-1.81-4.33c0-1.01,0.22-1.94,0.67-2.79c0.45-0.86,1.08-1.61,1.85-2.21c0.79-0.62,1.73-1.1,2.82-1.45
	c1.09-0.35,2.3-0.52,3.62-0.52c2.44,0,4.56,0.58,6.34,1.76c1.78,1.17,3.03,2.79,3.75,4.87h-4.79c-0.49-0.84-1.2-1.49-2.13-1.95
	c-0.93-0.46-1.98-0.69-3.13-0.69c-1.38,0-2.45,0.25-3.21,0.76c-0.76,0.51-1.14,1.22-1.14,2.14c0,0.66,0.29,1.2,0.88,1.6
	c0.59,0.4,1.56,0.74,2.91,0.99l3.36,0.65c2.61,0.49,4.54,1.29,5.78,2.4c1.24,1.11,1.85,2.58,1.85,4.4c0,1.04-0.23,1.99-0.69,2.84
	c-0.48,0.87-1.13,1.63-1.92,2.23c-0.82,0.64-1.8,1.13-2.95,1.47C149.29,63.83,148.04,64,146.69,64L146.69,64z"/>
</svg>
