<svg width="1200" height="630" viewBox="0 0 1200 630" xmlns="http://www.w3.org/2000/svg">
  <defs>
    <linearGradient id="bgGrad" x1="0%" y1="0%" x2="100%" y2="100%">
      <stop offset="0%" stop-color="#0f172a" />
      <stop offset="100%" stop-color="#1e293b" />
    </linearGradient>
    <linearGradient id="redGrad" x1="0%" y1="0%" x2="100%" y2="0%">
      <stop offset="0%" stop-color="#dc2626" />
      <stop offset="100%" stop-color="#ef4444" />
    </linearGradient>
  </defs>

  <rect width="1200" height="630" fill="url(#bgGrad)" />

  <!-- Decorative -->
  <circle cx="1050" cy="150" r="220" fill="#dc2626" opacity="0.08" />
  <circle cx="100" cy="500" r="180" fill="#1e40af" opacity="0.1" />

  <!-- Top bar -->
  <rect x="0" y="0" width="1200" height="6" fill="url(#redGrad)" />

  <!-- Icon and brand -->
  <g transform="translate(60, 60)">
    <rect x="0" y="0" width="64" height="64" rx="12" fill="#1e40af"/>
    <text x="32" y="44" font-family="Arial" font-size="32" fill="white" text-anchor="middle">📊</text>
    <text x="80" y="30" font-family="Arial" font-size="20" font-weight="700" fill="white">Broker Reviews</text>
    <text x="80" y="52" font-family="Arial" font-size="14" fill="#94a3b8">Beginner FX Guide</text>
  </g>

  <!-- Badge -->
  <rect x="60" y="160" width="180" height="32" rx="6" fill="url(#redGrad)"/>
  <text x="150" y="182" font-family="Arial" font-size="12" fill="white" text-anchor="middle" font-weight="600">EXPERT ANALYSIS</text>

  <!-- Main text -->
  <text x="60" y="270" font-family="Arial" font-size="56" font-weight="800" fill="white">Best Forex</text>
  <text x="60" y="340" font-family="Arial" font-size="56" font-weight="800" fill="url(#redGrad)">Brokers 2026</text>

  <!-- Subtitle -->
  <text x="60" y="410" font-family="Arial" font-size="24" fill="#cbd5e1">Unbiased reviews and comparisons for US traders</text>

  <!-- Features -->
  <g transform="translate(60, 470)">
    <rect x="0" y="0" width="140" height="40" rx="8" fill="white" opacity="0.1"/>
    <text x="70" y="26" font-family="Arial" font-size="14" fill="white" text-anchor="middle">25+ Brokers</text>

    <rect x="160" y="0" width="140" height="40" rx="8" fill="white" opacity="0.1"/>
    <text x="230" y="26" font-family="Arial" font-size="14" fill="white" text-anchor="middle">Independent</text>

    <rect x="320" y="0" width="140" height="40" rx="8" fill="white" opacity="0.1"/>
    <text x="390" y="26" font-family="Arial" font-size="14" fill="white" text-anchor="middle">US Focused</text>
  </g>

  <!-- URL -->
  <text x="60" y="570" font-family="Arial" font-size="18" fill="#64748b">beginnerfxguide.com/brokers</text>

  <!-- Bottom bar -->
  <rect x="0" y="624" width="1200" height="6" fill="url(#redGrad)" />
</svg>
